<svg width="135" height="136" viewBox="0 0 135 136" fill="none" xmlns="http://www.w3.org/2000/svg">
<rect x="35" y="35.5" width="100" height="100" rx="5" fill="#E7EFD1"/>
<path d="M79.1667 46.3335H20.8333C16.231 46.3335 12.5 50.0645 12.5 54.6668V83.8335C12.5 88.4359 16.231 92.1668 20.8333 92.1668H79.1667C83.769 92.1668 87.5 88.4359 87.5 83.8335V54.6668C87.5 50.0645 83.769 46.3335 79.1667 46.3335Z" stroke="black" stroke-width="5" stroke-linecap="round" stroke-linejoin="round"/>
<path d="M29.1666 46.3335V29.6668C29.1666 24.1415 31.3616 18.8424 35.2686 14.9354C39.1756 11.0284 44.4746 8.8335 50 8.8335C55.5253 8.8335 60.8243 11.0284 64.7313 14.9354C68.6384 18.8424 70.8333 24.1415 70.8333 29.6668V46.3335" stroke="black" stroke-width="5" stroke-linecap="round" stroke-linejoin="round"/>
</svg>
