<svg width="135" height="136" viewBox="0 0 135 136" fill="none" xmlns="http://www.w3.org/2000/svg">
<rect x="35" y="35.5" width="100" height="100" rx="5" fill="#CCEBF3"/>
<path d="M3.58301 10.7774C1.84182 11.3759 0.522733 12.8369 0.15339 14.562C0.0126871 15.2133 -0.0224885 26.9018 0.0126871 56.0524L0.0654505 96.6273L0.434794 97.4371C0.927253 98.4932 2.07046 99.6374 3.12573 100.13L3.93477 100.5H70.5925L71.4016 100.13C72.4568 99.6374 73.6 98.4932 74.0925 97.4371C74.4442 96.6625 74.4618 96.3809 74.5146 89.3221C74.5498 81.2599 74.5674 81.3655 73.4593 80.8198C72.8965 80.5382 72.7558 80.5382 72.2282 80.7494C71.085 81.2247 71.1202 80.9254 71.0322 88.8292L70.9443 96.0464L70.3639 96.5569L69.8011 97.0674L4.55034 96.9794L4.07547 96.4865L3.58301 96.0112V15.0373L4.07547 14.562L4.55034 14.0692L69.8011 13.9811L70.3639 14.4916L70.9443 15.0021L71.1202 35.6329L71.595 36.0905C72.2458 36.7418 73.3362 36.7418 73.987 36.0905L74.4618 35.6329V25.0182C74.4618 14.5444 74.4618 14.4036 74.0925 13.6115C73.6 12.5553 72.4568 11.4111 71.4016 10.9182L70.5925 10.5485L37.5275 10.5133C6.52017 10.4781 4.40964 10.4957 3.58301 10.7774Z" fill="black"/>
<path d="M34.3792 20.2302C28.0125 21.5504 23.2989 25.9688 21.5753 32.2355C21.0301 34.1894 21.0301 38.0973 21.5929 40.1216C23.1758 46.001 27.7311 50.4722 33.6757 51.9509C35.3466 52.3557 39.1807 52.3557 40.8516 51.9509C45.7761 50.7186 49.6806 47.5501 51.8615 43.0085C53.0223 40.5793 53.3389 39.1359 53.3389 36.1609C53.3389 34.0838 53.2509 33.3445 52.952 32.2355C51.3339 26.3737 46.9721 22.0081 41.1857 20.4767C39.3918 20.0014 36.0677 19.8782 34.3792 20.2302ZM41.045 24.0853C43.0324 24.719 44.5098 25.6343 46.1455 27.2714C47.7987 28.9261 48.6957 30.3872 49.3465 32.4643C49.7686 33.7493 49.8213 34.2598 49.8213 36.0729C49.8037 38.4845 49.5223 39.8048 48.5902 41.7059C47.5349 43.8359 47.6756 43.8007 46.1807 42.2164C45.0902 41.0722 43.3138 39.7344 42.4696 39.4527C42.3817 39.4175 42.5752 38.8542 42.9093 38.1853C43.4194 37.1467 43.5073 36.7771 43.5601 35.3688C43.648 33.3973 43.3314 32.077 42.4345 30.7568C41.2385 28.9965 39.4621 28.0636 37.2636 28.0636C33.324 28.0636 30.7562 31.0913 30.9672 35.4744C31.02 36.7594 31.1255 37.1819 31.6355 38.2029C31.9521 38.8542 32.1456 39.4175 32.0577 39.4527C31.2134 39.7344 29.4371 41.0722 28.3466 42.2164C26.8517 43.8007 26.9924 43.8359 25.9371 41.7059C24.9874 39.752 24.706 38.5021 24.7235 35.9849C24.7235 33.9958 24.7587 33.6437 25.2512 32.2531C25.9899 30.1055 26.7461 28.9085 28.3818 27.2714C30.0175 25.6343 31.5124 24.7014 33.4823 24.1029C35.3642 23.5396 35.6456 23.5044 37.7913 23.5748C39.1279 23.6276 40.0249 23.7684 41.045 24.0853ZM38.8993 32.0242C39.638 32.5699 40.0777 33.6437 40.0777 34.8935C40.0777 36.2842 39.7611 37.0411 38.9169 37.6748C38.3717 38.0973 38.0903 38.1853 37.2636 38.1853C35.4873 38.1853 34.4496 36.9883 34.4496 34.9463C34.4496 33.3621 35.0476 32.2179 36.1204 31.7426C36.7184 31.4785 38.3717 31.6546 38.8993 32.0242ZM39.2862 42.058C41.4144 42.6037 43.5249 44.0471 44.4922 45.6138L44.8792 46.2475L44.4571 46.5643C43.736 47.11 41.643 48.0782 40.4294 48.4127C39.638 48.6415 38.6707 48.7295 37.2636 48.7295C35.8566 48.7295 34.8893 48.6415 34.0978 48.4127C32.8843 48.0782 30.7913 47.11 30.0702 46.5643L29.6481 46.2475L30.0351 45.6138C30.2461 45.2617 30.8441 44.5928 31.3717 44.0999C33.5174 42.146 36.5601 41.3538 39.2862 42.058Z" fill="black"/>
<path d="M80.811 32.658C79.6327 32.9396 78.0673 33.9078 77.2407 34.8231C76.2734 35.9497 54.2007 74.1483 53.9545 75.1516C53.7434 76.0494 52.3891 88.1603 52.3891 89.2165C52.3891 90.255 52.9168 90.8887 53.8841 91.0296C54.658 91.1176 54.7283 91.0648 64.4368 83.8651L66.7408 82.1753L77.8387 62.8999C83.9417 52.3029 89.0949 43.3254 89.2884 42.9205C91.0647 39.3647 89.3939 34.8759 85.6301 33.098C84.6804 32.658 84.2407 32.5699 82.9919 32.5171C82.1653 32.4995 81.198 32.5523 80.811 32.658ZM84.0999 36.249C85.0673 36.6538 85.7356 37.3051 86.1577 38.3085C86.7557 39.7168 86.5974 40.6673 85.3663 42.8501C84.8035 43.8183 84.2934 44.6104 84.2055 44.6104C84.1 44.6104 82.5698 43.7655 80.7934 42.7445L77.5397 40.8786L77.8739 40.3153C78.0497 40.016 78.4191 39.3647 78.7005 38.8894C79.492 37.4812 80.1251 36.7595 80.9341 36.3546C81.8135 35.9145 83.203 35.8617 84.0999 36.249ZM79.3864 46.001C81.1452 47.022 82.3588 47.8318 82.3236 47.9726C82.2708 48.2014 65.1403 77.9857 64.8413 78.3554C64.7182 78.4962 63.786 78.0385 61.4293 76.6831C59.6529 75.6445 58.1931 74.7116 58.1931 74.6236C58.1931 74.5179 60.374 70.6453 63.0649 65.9981C76.3261 42.9909 75.7809 43.8887 76.0975 44.0823C76.2558 44.1703 77.7507 45.0329 79.3864 46.001ZM62.0449 81.2071C62.0449 81.3303 56.3992 85.467 56.3288 85.3966C56.2761 85.3438 56.9444 79.2355 57.0675 78.637C57.1379 78.285 57.2961 78.3378 59.6001 79.6756C60.9544 80.4678 62.0624 81.1543 62.0449 81.2071Z" fill="black"/>
<path d="M13.5201 58.2175C12.8518 58.5344 12.4121 59.573 12.6407 60.2067C12.9221 60.946 13.3266 61.3157 13.9598 61.4389C15.9121 61.8086 16.7563 59.0977 14.9799 58.1823C14.4874 57.9359 14.0653 57.9359 13.5201 58.2175Z" fill="black"/>
<path d="M21.1708 58.1471C20.0452 58.6224 19.7462 60.0835 20.608 60.9284L21.0829 61.4213L34.1858 61.4741L47.2711 61.5093L47.8515 60.9988C48.3264 60.5763 48.4319 60.3651 48.4319 59.749C48.4319 59.1329 48.3264 58.9217 47.8515 58.4992L47.2887 57.9887L34.3968 58.0063C27.3265 58.0063 21.3643 58.0767 21.1708 58.1471Z" fill="black"/>
<path d="M13.5201 68.0752C12.8518 68.3921 12.4121 69.4307 12.6407 70.0644C12.9221 70.8037 13.3266 71.1734 13.9598 71.2966C15.9121 71.6662 16.7563 68.9554 14.9799 68.04C14.4874 67.7936 14.0653 67.7936 13.5201 68.0752Z" fill="black"/>
<path d="M21.1708 68.0048C20.0452 68.4801 19.7462 69.9412 20.608 70.7861L21.0829 71.279L34.1858 71.3318L47.2711 71.367L47.8515 70.8565C48.3264 70.434 48.4319 70.2228 48.4319 69.6067C48.4319 68.9906 48.3264 68.7793 47.8515 68.3569L47.2887 67.8464L34.3968 67.864C27.3265 67.864 21.3643 67.9344 21.1708 68.0048Z" fill="black"/>
<path d="M13.5201 77.9329C12.8518 78.2498 12.4121 79.2884 12.6407 79.9221C12.9221 80.6614 13.3266 81.0311 13.9598 81.1543C15.9121 81.5239 16.7563 78.8131 14.9799 77.8977C14.4874 77.6513 14.0653 77.6513 13.5201 77.9329Z" fill="black"/>
<path d="M21.1708 77.8625C20.0452 78.3378 19.7462 79.7988 20.608 80.6438L21.0829 81.1367L34.1858 81.1895L47.2711 81.2247L47.8515 80.7142C48.3264 80.2917 48.4319 80.0805 48.4319 79.4644C48.4319 78.8483 48.3264 78.637 47.8515 78.2146L47.2887 77.7041L34.3968 77.7217C27.3265 77.7217 21.3643 77.7921 21.1708 77.8625Z" fill="black"/>
<path d="M36.6305 87.7378C36.0677 87.9666 35.5049 88.7764 35.5049 89.3397C35.5049 89.6565 35.6983 90.0614 36.0149 90.4135L36.525 90.9944L47.2711 91.1L47.8515 90.5719C48.3264 90.1494 48.4319 89.9382 48.4319 89.3221C48.4319 88.706 48.3264 88.4947 47.8515 88.0723L47.2887 87.5618L42.1355 87.5794C39.3214 87.5794 36.8239 87.6498 36.6305 87.7378Z" fill="black"/>
</svg>
