<?xml version="1.0" encoding="UTF-8" standalone="no"?><svg xmlns="http://www.w3.org/2000/svg" xmlns:xlink="http://www.w3.org/1999/xlink"><symbol id="add" xmlns="http://www.w3.org/2000/svg" viewBox="0 0 24 24"><path d="M19 13h-6v6h-2v-6H5v-2h6V5h2v6h6v2z"></path></symbol><symbol id="arrow-back" xmlns="http://www.w3.org/2000/svg" viewBox="0 0 24 24"><path d="M20 11H7.83l5.59-5.59L12 4l-8 8 8 8 1.41-1.41L7.83 13H20v-2z"></path></symbol><symbol id="arrow-forward" xmlns="http://www.w3.org/2000/svg" viewBox="0 0 24 24"><path d="M4 11h12.17l-5.59-5.59L12 4l8 8-8 8-1.41-1.41L16.17 13H4Z"></path></symbol><symbol id="arrow-down" xmlns="http://www.w3.org/2000/svg" viewBox="0 0 24 24"><path d="M18.9 11.8l-.6-.6a.4.4 0 00-.6 0L12.8 16V5.3a.4.4 0 00-.4-.4h-.8a.4.4 0 00-.4.4v10.8l-5-5a.4.4 0 00-.5 0l-.6.7a.4.4 0 000 .5l6.6 6.7a.4.4 0 00.6 0l6.6-6.6a.4.4 0 000-.6z"></path></symbol><symbol id="arrow-up" xmlns="http://www.w3.org/2000/svg" viewBox="0 0 24 24"><path d="m18.9 12.2354-.6.6a.4.4 0 0 1-.6 0l-4.9-4.8v10.7a.4.4 0 0 1-.4.4h-.8a.4.4 0 0 1-.4-.4v-10.8l-5 5a.4.4 0 0 1-.5 0l-.6-.7a.4.4 0 0 1 0-.5l6.6-6.7a.4.4 0 0 1 .6 0l6.6 6.6a.4.4 0 0 1 0 .6z"></path></symbol><symbol id="check" xmlns="http://www.w3.org/2000/svg" viewBox="0 0 24 24"><path d="M9 16.2L4.8 12l-1.4 1.4L9 19 21 7l-1.4-1.4z"></path></symbol><symbol id="arrow-dropdown" xmlns="http://www.w3.org/2000/svg" viewBox="0 0 24 24"><path d="m12 15.75-7.5-7.5h15z"></path></symbol><symbol id="calculate" xmlns="http://www.w3.org/2000/svg" viewBox="0 0 24 24"><path d="M8 18h1.5v-2h2v-1.5h-2v-2H8v2H6V16h2Zm5-.75h5v-1.5h-5zm0-2.5h5v-1.5h-5Zm1.1-3.8 1.4-1.4 1.4 1.4 1.05-1.05-1.4-1.45 1.4-1.4L16.9 6l-1.4 1.4L14.1 6l-1.05 1.05 1.4 1.4-1.4 1.45ZM6.25 9.2h5V7.7h-5ZM5 21q-.825 0-1.4125-.5875Q3 19.825 3 19V5q0-.825.5875-1.4125Q4.175 3 5 3h14q.825 0 1.4125.5875Q21 4.175 21 5v14q0 .825-.5875 1.4125Q19.825 21 19 21Zm0-2h14V5H5ZM5 5v14z"></path></symbol><symbol id="chevron-down" xmlns="http://www.w3.org/2000/svg" viewBox="0 0 24 24"><path d="M16.591 9.292L18 10.707l-6 6-6-6 1.409-1.415L12 13.877z"></path></symbol><symbol id="chevron-left" xmlns="http://www.w3.org/2000/svg" viewBox="0 0 24 24"><path d="M14.521 7.409L13.106 6l-6 6 6 6 1.415-1.409L9.936 12z"></path></symbol><symbol id="chevron-right" xmlns="http://www.w3.org/2000/svg" viewBox="0 0 24 24"><path d="M10 6L8.59 7.41 13.17 12l-4.58 4.59L10 18l6-6z"></path></symbol><symbol id="chevron-up" xmlns="http://www.w3.org/2000/svg" viewBox="0 0 24 24"><path d="M16.591 15.707L18 14.293l-6-6-6 6 1.409 1.416L12 11.121z"></path></symbol><symbol id="close" xmlns="http://www.w3.org/2000/svg" viewBox="0 0 24 24"><path d="M19 6.41L17.59 5 12 10.59 6.41 5 5 6.41 10.59 12 5 17.59 6.41 19 12 13.41 17.59 19 19 17.59 13.41 12z"></path></symbol><symbol id="copy" xmlns="http://www.w3.org/2000/svg" viewBox="0 0 24 24"><path d="M9.5 18q-.825 0-1.4125-.5875Q7.5 16.825 7.5 16V4q0-.825.5875-1.4125Q8.675 2 9.5 2h9q.825 0 1.4125.5875Q20.5 3.175 20.5 4v12q0 .825-.5875 1.4125Q19.325 18 18.5 18Zm0-2h9V4h-9zm-4 6q-.825 0-1.4125-.5875Q3.5 20.825 3.5 20V6h2v14h11v2zm4-6V4Z"></path></symbol><symbol id="dashboard" xmlns="http://www.w3.org/2000/svg" viewBox="0 0 24 24"><path d="M3 13h8V3H3v10zm0 8h8v-6H3v6zm10 0h8V11h-8v10zm0-18v6h8V3h-8z"></path></symbol><symbol id="delete" xmlns="http://www.w3.org/2000/svg" viewBox="0 0 24 24"><path d="M6 19a2 2 0 002 2h8a2 2 0 002-2V7H6zM19 4h-3.5l-1-1h-5l-1 1H5v2h14z"></path></symbol><symbol id="download" xmlns="http://www.w3.org/2000/svg" viewBox="0 0 24 24"><path d="M19 9h-4V3H9v6H5l7 7zM5 18v2h14v-2z"></path></symbol><symbol id="first-page" xmlns="http://www.w3.org/2000/svg" viewBox="0 0 24 24"><path d="M18.41 16.59L13.82 12l4.59-4.59L17 6l-6 6 6 6zM6 6h2v12H6z"></path></symbol><symbol id="help" xmlns="http://www.w3.org/2000/svg" viewBox="0 0 24 24"><path d="M12 2c-1.3833 0-2.6837.2621-3.9004.7871S5.8258 4.0258 4.9258 4.9258c-.9.9-1.6137 1.9571-2.1387 3.1738C2.2621 9.3163 2 10.6166 2 12c0 1.3833.2621 2.6837.7871 3.9004s1.2387 2.2738 2.1387 3.1738c.9.9 1.9571 1.6137 3.1738 2.1387C9.3163 21.7379 10.6166 22 12 22c1.3833 0 2.6837-.2621 3.9004-.7871s2.2738-1.2387 3.1738-2.1387c.9-.9 1.6137-1.9571 2.1387-3.1738C21.7379 14.6837 22 13.3834 22 12c0-1.3833-.2621-2.6837-.7871-3.9004s-1.2387-2.2738-2.1387-3.1738c-.9-.9-1.9571-1.6137-3.1738-2.1387C14.6837 2.2621 13.3834 2 12 2Zm.0996 4c.9333 0 1.7425.25 2.4258.75.6833.5 1.0254 1.217 1.0254 2.1504 0 .55-.125 1.0204-.375 1.4121-.25.3917-.592.805-1.0254 1.2383-.5833.55-.9375.9821-1.0625 1.2988s-.1875.7508-.1875 1.3008h-1.8496c0-.8833.0833-1.4928.25-1.8262.1666-.3333.6163-.8246 1.3496-1.4746.3-.25.55-.5208.75-.8125.2-.2917.2988-.6042.2988-.9375 0-.35-.1318-.6712-.3984-.9629-.2667-.2917-.6679-.4375-1.2012-.4375-.6 0-1.0462.1754-1.3379.5254-.2916.35-.4791.6746-.5625.9746l-1.6484-.6484c.2333-.7.6446-1.3008 1.2363-1.8008S11.1496 6 12.0996 6Zm-.1504 9.5c.35 0 .647.1216.8887.3633.2417.2417.3613.5367.3613.8867 0 .35-.1196.645-.3613.8867-.2417.2417-.5387.3633-.8887.3633-.35 0-.645-.1216-.8867-.3633-.2417-.2417-.3633-.5367-.3633-.8867 0-.35.1216-.645.3633-.8867.2417-.2417.5367-.3633.8867-.3633Z"></path></symbol><symbol id="language" xmlns="http://www.w3.org/2000/svg" viewBox="0 0 24 24"><path d="M12 22q-2.05 0-3.875-.7875-1.825-.7875-3.1875-2.15Q3.575 17.7 2.7875 15.875 2 14.05 2 12q0-2.075.7875-3.8875t2.15-3.175Q6.3 3.575 8.125 2.7875 9.95 2 12 2q2.075 0 3.8875.7875t3.175 2.15q1.3625 1.3625 2.15 3.175Q22 9.925 22 12q0 2.05-.7875 3.875-.7875 1.825-2.15 3.1875-1.3625 1.3625-3.175 2.15Q14.075 22 12 22Zm0-2.05q.65-.9 1.125-1.875T13.9 16h-3.8q.3 1.1.775 2.075.475.975 1.125 1.875Zm-2.6-.4q-.45-.825-.7875-1.7125Q8.275 16.95 8.05 16H5.1q.725 1.25 1.8125 2.175Q8 19.1 9.4 19.55Zm5.2 0q1.4-.45 2.4875-1.375T18.9 16h-2.95q-.225.95-.5625 1.8375T14.6 19.55ZM4.25 14h3.4q-.075-.5-.1125-.9875Q7.5 12.525 7.5 12q0-.525.0375-1.0125Q7.575 10.5 7.65 10h-3.4q-.125.5-.1875.9875Q4 11.475 4 12q0 .525.0625 1.0125Q4.125 13.5 4.25 14Zm5.4 0h4.7q.075-.5.1125-.9875Q14.5 12.525 14.5 12q0-.525-.0375-1.0125Q14.425 10.5 14.35 10h-4.7q-.075.5-.1125.9875Q9.5 11.475 9.5 12q0 .525.0375 1.0125Q9.575 13.5 9.65 14Zm6.7 0h3.4q.125-.5.1875-.9875Q20 12.525 20 12q0-.525-.0625-1.0125Q19.875 10.5 19.75 10h-3.4q.075.5.1125.9875Q16.5 11.475 16.5 12q0 .525-.0375 1.0125Q16.425 13.5 16.35 14Zm-.4-6h2.95q-.725-1.25-1.8125-2.175Q16 4.9 14.6 4.45q.45.825.7875 1.7125Q15.725 7.05 15.95 8ZM10.1 8h3.8q-.3-1.1-.775-2.075Q12.65 4.95 12 4.05q-.65.9-1.125 1.875T10.1 8Zm-5 0h2.95q.225-.95.5625-1.8375T9.4 4.45Q8 4.9 6.9125 5.825T5.1 8Z"></path></symbol><symbol id="home" xmlns="http://www.w3.org/2000/svg" viewBox="0 0 24 24"><path d="M10 20v-6h4v6h5v-8h3L12 3 2 12h3v8z"></path></symbol><symbol id="last-page" xmlns="http://www.w3.org/2000/svg" viewBox="0 0 24 24"><path d="M5.59 7.41L10.18 12l-4.59 4.59L7 18l6-6-6-6zM16 6h2v12h-2z"></path></symbol><symbol id="list" xmlns="http://www.w3.org/2000/svg" viewBox="0 0 24 24"><path d="M7 9V7h14v2zm0 4v-2h14v2zm0 4v-2h14v2zM4 9q-.425 0-.7125-.2875Q3 8.425 3 8q0-.425.2875-.7125Q3.575 7 4 7q.425 0 .7125.2875Q5 7.575 5 8q0 .425-.2875.7125Q4.425 9 4 9Zm0 4q-.425 0-.7125-.2875Q3 12.425 3 12q0-.425.2875-.7125Q3.575 11 4 11q.425 0 .7125.2875Q5 11.575 5 12q0 .425-.2875.7125Q4.425 13 4 13Zm0 4q-.425 0-.7125-.2875Q3 16.425 3 16q0-.425.2875-.7125Q3.575 15 4 15q.425 0 .7125.2875Q5 15.575 5 16q0 .425-.2875.7125Q4.425 17 4 17Z"></path></symbol><symbol id="more-horiz" xmlns="http://www.w3.org/2000/svg" viewBox="0 0 24 24"><path d="M6 14q-.825 0-1.4125-.5875Q4 12.825 4 12q0-.825.5875-1.4125Q5.175 10 6 10q.825 0 1.4125.5875Q8 11.175 8 12q0 .825-.5875 1.4125Q6.825 14 6 14Zm6 0q-.825 0-1.4125-.5875Q10 12.825 10 12q0-.825.5875-1.4125Q11.175 10 12 10q.825 0 1.4125.5875Q14 11.175 14 12q0 .825-.5875 1.4125Q12.825 14 12 14Zm6 0q-.825 0-1.4125-.5875Q16 12.825 16 12q0-.825.5875-1.4125Q17.175 10 18 10q.825 0 1.4125.5875Q20 11.175 20 12q0 .825-.5875 1.4125Q18.825 14 18 14Z"></path></symbol><symbol id="more-vert" xmlns="http://www.w3.org/2000/svg" viewBox="0 0 24 24"><path d="M12 20q-.825 0-1.4125-.5875Q10 18.825 10 18q0-.825.5875-1.4125Q11.175 16 12 16q.825 0 1.4125.5875Q14 17.175 14 18q0 .825-.5875 1.4125Q12.825 20 12 20Zm0-6q-.825 0-1.4125-.5875Q10 12.825 10 12q0-.825.5875-1.4125Q11.175 10 12 10q.825 0 1.4125.5875Q14 11.175 14 12q0 .825-.5875 1.4125Q12.825 14 12 14Zm0-6q-.825 0-1.4125-.5875Q10 6.825 10 6q0-.825.5875-1.4125Q11.175 4 12 4q.825 0 1.4125.5875Q14 5.175 14 6q0 .825-.5875 1.4125Q12.825 8 12 8Z"></path></symbol><symbol id="open-in-new" xmlns="http://www.w3.org/2000/svg" viewBox="0 0 24 24"><path d="M5 21q-.825 0-1.4125-.5875Q3 19.825 3 19V5q0-.825.5875-1.4125Q4.175 3 5 3h7v2H5v14h14v-7h2v7q0 .825-.5875 1.4125Q19.825 21 19 21Zm4.7-5.3-1.4-1.4L17.6 5H14V3h7v7h-2V6.4Z"></path></symbol><symbol id="progress-done" xmlns="http://www.w3.org/2000/svg" viewBox="0 0 24 24"><path d="M12 2c-1.3833 0-2.6837.2621-3.9004.7871S5.8258 4.0258 4.9258 4.9258c-.9.9-1.6137 1.9571-2.1387 3.1738C2.2621 9.3163 2 10.6166 2 12c0 1.3833.2621 2.6837.7871 3.9004s1.2387 2.2738 2.1387 3.1738c.9.9 1.9571 1.6137 3.1738 2.1387C9.3163 21.7379 10.6166 22 12 22c1.3833 0 2.6837-.2621 3.9004-.7871s2.2738-1.2387 3.1738-2.1387c.9-.9 1.6137-1.9571 2.1387-3.1738C21.7379 14.6837 22 13.3833 22 12c0-1.3833-.2621-2.6837-.7871-3.9004s-1.2387-2.2738-2.1387-3.1738c-.9-.9-1.9571-1.6137-3.1738-2.1387C14.6837 2.2621 13.3833 2 12 2zm4.9219 5.5313.9375.9375-8 8L6.1406 12.75l.9063-.9375 2.8125 2.8125 7.0625-7.0938z"></path></symbol><symbol id="progress-ongoing" xmlns="http://www.w3.org/2000/svg" viewBox="0 0 24 24"><path d="M12 22c-1.3833 0-2.6833-.2625-3.9-.7875-1.2167-.525-2.275-1.2375-3.175-2.1375-.9-.9-1.6125-1.9583-2.1375-3.175C2.2625 14.6833 2 13.3833 2 12c0-1.3833.2625-2.6833.7875-3.9.525-1.2167 1.2375-2.275 2.1375-3.175.9-.9 1.9583-1.6125 3.175-2.1375C9.3167 2.2625 10.6167 2 12 2c1.3833 0 2.6833.2625 3.9.7875 1.2167.525 2.275 1.2375 3.175 2.1375.9.9 1.6125 1.9583 2.1375 3.175.525 1.2167.7875 2.5167.7875 3.9 0 1.3833-.2625 2.6833-.7875 3.9-.525 1.2167-1.2375 2.275-2.1375 3.175-.9.9-1.9583 1.6125-3.175 2.1375-1.2167.525-2.5167.7875-3.9.7875Zm-5.675-4.325L12 12V4c-2.2333 0-4.125.775-5.675 2.325C4.775 7.875 4 9.7667 4 12c0 1.0667.2 2.0917.6 3.075.4.9833.975 1.85 1.725 2.6z"></path></symbol><symbol id="progress-empty" xmlns="http://www.w3.org/2000/svg" viewBox="0 0 24 24"><path d="M12 22c-1.3833 0-2.6833-.2625-3.9-.7875-1.2167-.525-2.275-1.2375-3.175-2.1375-.9-.9-1.6125-1.9583-2.1375-3.175C2.2625 14.6833 2 13.3833 2 12c0-1.3833.2625-2.6833.7875-3.9.525-1.2167 1.2375-2.275 2.1375-3.175.9-.9 1.9583-1.6125 3.175-2.1375C9.3167 2.2625 10.6167 2 12 2c1.3833 0 2.6833.2625 3.9.7875 1.2167.525 2.275 1.2375 3.175 2.1375.9.9 1.6125 1.9583 2.1375 3.175.525 1.2167.7875 2.5167.7875 3.9 0 1.3833-.2625 2.6833-.7875 3.9-.525 1.2167-1.2375 2.275-2.1375 3.175-.9.9-1.9583 1.6125-3.175 2.1375-1.2167.525-2.5167.7875-3.9.7875Zm0-2c2.2333 0 4.125-.775 5.675-2.325C19.225 16.125 20 14.2333 20 12c0-1.0667-.2-2.0917-.6-3.075-.4-.9833-.975-1.85-1.725-2.6L12 12V4c-2.2333 0-4.125.775-5.675 2.325C4.775 7.875 4 9.7667 4 12s.775 4.125 2.325 5.675C7.875 19.225 9.7667 20 12 20Z"></path></symbol><symbol id="search" xmlns="http://www.w3.org/2000/svg" viewBox="0 0 24 24"><path d="M19.783 17.833l-3.116-3.116a.75.75 0 00-.532-.218h-.509a6.47 6.468 0 001.375-4A6.5 6.499 0 0010.501 4 6.5 6.499 0 004 10.498a6.5 6.499 0 006.5 6.5 6.47 6.468 0 004.001-1.374v.51c0 .2.078.39.219.53l3.115 3.115a.747.747 0 001.06 0l.884-.884a.752.752 0 000-1.062zM10.5 14.499c-2.21 0-4.001-1.788-4.001-4 0-2.21 1.788-4 4-4 2.21 0 4.001 1.787 4.001 4 0 2.21-1.788 4-4 4z"></path></symbol><symbol id="sort" xmlns="http://www.w3.org/2000/svg" viewBox="0 0 24 24"><path d="M3 18v-2h6v2zm0-5v-2h12v2zm0-5V6h18v2z"></path></symbol><symbol id="progress-started" xmlns="http://www.w3.org/2000/svg" viewBox="0 0 24 24"><path d="M12 22c-1.3833 0-2.6833-.2625-3.9-.7875-1.2167-.525-2.275-1.2375-3.175-2.1375-.9-.9-1.6125-1.9583-2.1375-3.175C2.2625 14.6833 2 13.3833 2 12c0-1.3833.2625-2.6833.7875-3.9.525-1.2167 1.2375-2.275 2.1375-3.175.9-.9 1.9583-1.6125 3.175-2.1375C9.3167 2.2625 10.6167 2 12 2c1.3833 0 2.6833.2625 3.9.7875 1.2167.525 2.275 1.2375 3.175 2.1375.9.9 1.6125 1.9583 2.1375 3.175.525 1.2167.7875 2.5167.7875 3.9 0 1.3833-.2625 2.6833-.7875 3.9-.525 1.2167-1.2375 2.275-2.1375 3.175-.9.9-1.9583 1.6125-3.175 2.1375-1.2167.525-2.5167.7875-3.9.7875Zm0-2c1.0667 0 2.0917-.2 3.075-.6.9833-.4 1.85-.975 2.6-1.725L12 12V4c-2.2333 0-4.125.775-5.675 2.325C4.775 7.875 4 9.7667 4 12s.775 4.125 2.325 5.675C7.875 19.225 9.7667 20 12 20Z"></path></symbol><symbol id="sync" xmlns="http://www.w3.org/2000/svg" viewBox="0 0 24 24"><path d="m7 21-5-5 5-5 1.425 1.4-2.6 2.6H21v2H5.825l2.6 2.6zm10-8-1.425-1.4 2.6-2.6H3V7h15.175l-2.6-2.6L17 3l5 5Z"></path></symbol><symbol id="user" xmlns="http://www.w3.org/2000/svg" viewBox="0 0 24 24"><path d="M12 12c2.21 0 4-1.79 4-4s-1.79-4-4-4-4 1.79-4 4 1.79 4 4 4zm0 2c-2.67 0-8 1.34-8 4v2h16v-2c0-2.66-5.33-4-8-4z"></path></symbol><symbol id="upload-file" xmlns="http://www.w3.org/2000/svg" viewBox="0 0 24 24"><path d="M11 19h2v-4.175l1.6 1.6L16 15l-4-4-4 4 1.425 1.4L11 14.825Zm-5 3q-.825 0-1.4125-.5875Q4 20.825 4 20V4q0-.825.5875-1.4125Q5.175 2 6 2h8l6 6v12q0 .825-.5875 1.4125Q18.825 22 18 22Zm7-13V4H6v16h12V9ZM6 4v5-5 16Z"></path></symbol><symbol id="verified" xmlns="http://www.w3.org/2000/svg" viewBox="0 0 24 24"><path d="m23 12-2.44-2.79.34-3.69-3.61-.82-1.89-3.2L12 2.96 8.6 1.5 6.71 4.69 3.1 5.5l.34 3.7L1 12l2.44 2.79-.34 3.7 3.61.82L8.6 22.5l3.4-1.47 3.4 1.46 1.89-3.19 3.61-.82-.34-3.69L23 12zm-12.91 4.72-3.8-3.81 1.48-1.48 2.32 2.33 5.85-5.87 1.48 1.48-7.33 7.35z"></path></symbol><symbol id="warning" xmlns="http://www.w3.org/2000/svg" viewBox="0 0 24 24"><path d="m12 2.5-11 19h22zm-1 8h2v5h-2zm1 6c.2833 0 .5212.0955.7129.2871.1917.1917.2871.4296.2871.7129s-.0954.5212-.2871.7129c-.1917.1916-.4296.2871-.7129.2871s-.5212-.0955-.7129-.2871C11.0954 18.0212 11 17.7834 11 17.5c0-.2833.0954-.5212.2871-.7129.1917-.1916.4296-.287.7129-.287z"></path></symbol></svg>