<svg xmlns="http://www.w3.org/2000/svg" viewBox="0 0 64 53">
  <path fill="#C30F08" d="M34.014 0a.873.873 0 0 0-.71.3093l-3.472 3.8941-.166.1968a.8935.8935 0 0 0-.256.6307v.4117l.004.1145h.004c.02.2189.08.3876.192.502.13.1306.334.1969.604.2049h4.138c.27-.008.47-.0743.6-.2049a.6835.6835 0 0 0 .192-.494V.8234c-.008-.2751-.07-.482-.2-.6145-.13-.1306-.33-.2009-.6-.209zm-23.78 9.1178c-2.888.0703-5.3 1.0243-7.23 2.8599C1.074 13.8153.074 16.1109 0 18.8763v10.8812c.074 2.7655 1.074 5.067 3.004 6.9027 1.932 1.8356 4.34 2.7875 7.23 2.8578h.442a10.4883 10.4883 0 0 0 1.736-.1486c.044-.008.09-.0201.14-.0261l.134-.0321a1.692 1.692 0 0 0 .144-.0342c.048-.012.096-.0201.144-.0361l.144-.0422.148-.0462.142-.0482.148-.0602.148-.0603.146-.0623c.05-.02.092-.0461.14-.0682l.14-.0683a6.1162 6.1162 0 0 0 .266-.1486l.128-.0804a2.1239 2.1239 0 0 0 .238-.1606 1.9682 1.9682 0 0 0 .112-.0804l.11-.0803.05-.0402c.18-.1546.36-.3012.532-.4117l.088-.0502a.2463.2463 0 0 1 .048-.0161l.05-.016.052-.0081a.5775.5775 0 0 1 .11 0l.052.0081c.02.006.032.008.05.016.018.0061.036.0081.05.0161.018.006.03.0161.044.0241l.046.0261a.3522.3522 0 0 1 .04.0342l.036.0301a.585.585 0 0 1 .034.0381c.012.0121.02.0282.03.0402l.03.0442.02.0482c.008.0161.016.0281.02.0462l.012.0522c.004.0201.01.0341.012.0542v.1004c-.178 3.0366-1.024 6.9127-4.078 7.9069a5.5933 5.5933 0 0 1-2.496.245c-1.296-.1928-2.518-.8094-3.654-1.4802-.668-.3916-1.05-.737-1.416-.739-.26 0-.492.2611-.66.4478a183.3615 183.3615 0 0 1-2.504 2.6972.785.785 0 0 0-.206.4619c-.03.4881.684.964 1.026 1.2512 2.816 2.3337 6.45 3.6351 10.096 2.9925 6.024-1.0645 8.872-5.9246 9.518-11.6424.228-2.0505.146-4.1331.146-6.1917V11.0237c0-.3635.08-1.0764-.038-1.4158-.154-.458-.714-.3676-1.088-.3676H17.38c-.24 0-.532-.032-.772.0382-.4.1185-.392.6065-.388.964a.4804.4804 0 0 1-.046.2089.4632.4632 0 0 1-.114.1667.5262.5262 0 0 1-.08.0682c-.028.0201-.06.0342-.09.0482a.79.79 0 0 1-.102.0302.4585.4585 0 0 1-.216 0 .73.73 0 0 1-.098-.0302c-.02-.01-.046-.02-.076-.0401-.044-.0281-.08-.0663-.08-.0663l-.04-.0361-.04-.0402-.044-.0362-.044-.0401-.042-.0362-.046-.0401-.044-.0362-.05-.0341-.044-.0402-.05-.0362-.052-.0341-.05-.0402-.052-.0321-.05-.0361-.056-.0342-.054-.0341-.052-.0342-.04-.028-.122-.0684-.134-.0723a3.4255 3.4255 0 0 0-.136-.0683 2.0573 2.0573 0 0 1-.136-.0642l-.142-.0663-.144-.0562-.152-.0563-.146-.0542a3.6566 3.6566 0 0 0-.152-.0482l-.148-.0422c-.05-.016-.1-.026-.146-.0401l-.148-.0322a3.246 3.246 0 0 0-.288-.0602l-.14-.0241a12.8399 12.8399 0 0 0-1.53-.1085Zm19.862.2752c-.248 0-.428.0763-.544.2088a.7447.7447 0 0 0-.17.5061v.1165l-.004 16.2475.004 12.297c0 .237.06.4218.17.5362.114.1185.296.1788.544.1788h4.308c.248-.002.434-.0763.548-.2089a.7452.7452 0 0 0 .166-.5061v-28.661c0-.237-.056-.4217-.162-.5362-.116-.1205-.304-.1807-.552-.1807Zm12.85.028c-.452-.01-.676.209-.664.6628v3.9966c-.012.4539.212.6748.664.6628h10.266c.232 0 .418.0401.544.1345a.4793.4793 0 0 1 .184.3977 1.0186 1.0186 0 0 1-.04.235 1.4955 1.4955 0 0 1-.092.2329L41.684 38.4857a1.5284 1.5284 0 0 0-.09.231.8763.8763 0 0 0-.042.231c.01.3414.252.5221.728.5362h20.464c.23 0 .4-.0542.506-.1607.106-.1064.154-.2771.154-.5081v-3.9926c0-.2329-.06-.4016-.18-.5081a.6782.6782 0 0 0-.48-.1546h-10.95c-.264-.002-.448-.0502-.562-.1446a.4737.4737 0 0 1-.174-.3756.9332.9332 0 0 1 .14-.482l11.996-22.7384a1.552 1.552 0 0 0 .09-.2349.8704.8704 0 0 0 .04-.233c-.01-.3414-.252-.5182-.728-.5302zm-32.228 5.0852h.552c1.424.012 2.366.4298 3.366 1.2391 1.004.8154 1.526 1.7212 1.572 3.1732v10.9173c-.046 1.3697-.568 2.2373-1.572 3.0487-1 .8093-1.94 1.2251-3.366 1.2452h-.552c-1.48-.0362-2.448-.5242-3.446-1.4621-.998-.9379-1.514-1.8838-1.552-3.2977V19.268c.04-1.4159.554-2.3638 1.552-3.3017s1.966-1.426 3.446-1.4601z"/>
</svg>
