<svg viewBox="0 0 200 46" xmlns="http://www.w3.org/2000/svg">
    <path d="M43.32 45.828H39.596L14.932 2.956L18.67 0L43.344 42.916L43.32 45.828ZM68.118 2.352L68.24 2.288L83.616 42.8L82.216 45.91L79.5 44.95L65.724 8.656L68.118 2.352Z" fill="#CECF74"/>
    <path d="M99.4 32.56H98.34V29.486C98.34 29.1 98.262 28.812 98.108 28.622C97.954 28.432 97.708 28.338 97.374 28.338C96.928 28.338 96.602 28.47 96.394 28.736C96.19 29 96.084 29.444 96.084 30.068V32.56H95.03V27.56H95.856L96.004 28.214H96.058C96.2126 27.9725 96.4344 27.7814 96.696 27.664C96.972 27.534 97.276 27.468 97.61 27.468C98.804 27.468 99.4 28.08 99.4 29.3V32.56ZM92.336 32.56H93.41V25.948H92.336V32.56ZM100.868 32.56H101.922V27.56H100.868V32.56ZM100.806 26.232C100.806 26.042 100.856 25.896 100.962 25.794C101.062 25.69 101.212 25.64 101.402 25.64C101.588 25.64 101.732 25.69 101.834 25.794C101.94 25.894 101.992 26.042 101.992 26.232C101.992 26.412 101.94 26.556 101.834 26.66C101.776 26.7141 101.708 26.7559 101.634 26.7828C101.56 26.8096 101.481 26.8209 101.402 26.816C101.212 26.816 101.062 26.764 100.962 26.66C100.908 26.6029 100.867 26.5355 100.84 26.462C100.813 26.3884 100.802 26.3102 100.806 26.232ZM105.282 31.792C105.542 31.792 105.798 31.752 106.056 31.668V32.468C105.911 32.5277 105.759 32.5713 105.604 32.598C105.415 32.6331 105.224 32.6505 105.032 32.65C104.032 32.65 103.532 32.12 103.532 31.058V28.364H102.852V27.894L103.58 27.504L103.94 26.444H104.592V27.56H106.008V28.364H104.592V31.04C104.592 31.296 104.654 31.486 104.782 31.608C104.849 31.6699 104.928 31.7179 105.014 31.7491C105.1 31.7804 105.191 31.7963 105.282 31.792ZM107.05 32.56H108.104V27.56H107.05V32.56ZM106.986 26.232C106.986 26.042 107.038 25.896 107.142 25.796C107.244 25.692 107.392 25.64 107.582 25.64C107.77 25.64 107.914 25.692 108.016 25.796C108.12 25.896 108.172 26.042 108.172 26.232C108.172 26.414 108.12 26.558 108.016 26.66C107.958 26.714 107.89 26.7558 107.816 26.7826C107.742 26.8094 107.663 26.8208 107.584 26.816C107.392 26.816 107.244 26.766 107.142 26.66C107.088 26.603 107.047 26.5357 107.02 26.4621C106.993 26.3885 106.982 26.3102 106.986 26.232ZM111.148 31.836C111.486 31.853 111.817 31.7383 112.072 31.516C112.304 31.296 112.42 30.996 112.42 30.606V30.172L111.78 30.2C111.286 30.218 110.924 30.3 110.698 30.45C110.47 30.6 110.358 30.828 110.358 31.134C110.358 31.36 110.424 31.534 110.556 31.654C110.688 31.776 110.886 31.836 111.148 31.836ZM112.722 32.56L112.51 31.864H112.474C112.234 32.168 111.994 32.376 111.752 32.484C111.455 32.605 111.136 32.6622 110.816 32.652C110.328 32.652 109.948 32.518 109.674 32.252C109.4 31.988 109.264 31.612 109.264 31.126C109.264 30.61 109.454 30.222 109.834 29.96C110.214 29.698 110.794 29.554 111.57 29.53L112.43 29.504V29.236C112.43 28.916 112.354 28.678 112.206 28.52C112.058 28.36 111.826 28.282 111.518 28.282C111.264 28.282 111.018 28.322 110.786 28.394C110.556 28.4686 110.331 28.5581 110.112 28.662L109.772 27.902C110.05 27.756 110.346 27.648 110.654 27.58C110.974 27.506 111.278 27.468 111.564 27.468C112.194 27.468 112.67 27.608 112.994 27.884C113.314 28.162 113.474 28.598 113.474 29.19V32.56H112.722ZM116.798 31.79C117.058 31.79 117.314 31.752 117.572 31.668V32.468C117.427 32.5277 117.275 32.5713 117.12 32.598C116.93 32.634 116.74 32.652 116.546 32.65C115.546 32.65 115.046 32.12 115.046 31.058V28.364H114.368V27.894L115.098 27.504L115.458 26.444H116.108V27.56H117.522V28.364H116.108V31.04C116.108 31.296 116.17 31.486 116.298 31.608C116.434 31.7321 116.614 31.7975 116.798 31.79ZM118.564 32.56H119.618V27.56H118.564V32.56ZM118.502 26.232C118.502 26.042 118.554 25.896 118.658 25.796C118.758 25.692 118.908 25.64 119.098 25.64C119.284 25.64 119.43 25.692 119.532 25.796C119.636 25.896 119.688 26.042 119.688 26.232C119.692 26.3102 119.681 26.3884 119.654 26.462C119.627 26.5355 119.586 26.6029 119.532 26.66C119.474 26.7143 119.406 26.7562 119.331 26.783C119.257 26.8098 119.177 26.8211 119.098 26.816C118.908 26.816 118.758 26.766 118.658 26.66C118.604 26.6029 118.563 26.5355 118.536 26.462C118.509 26.3884 118.498 26.3102 118.502 26.232ZM122.262 32.558L120.374 27.558H121.488L122.498 30.466C122.672 30.954 122.776 31.35 122.812 31.65H122.848C122.876 31.432 122.98 31.038 123.162 30.466L124.172 27.558H125.296L123.402 32.558H122.262ZM128.026 28.274C127.877 28.267 127.727 28.2919 127.588 28.3471C127.45 28.4023 127.324 28.4864 127.22 28.594C127.02 28.81 126.9 29.12 126.86 29.53H129.114C129.108 29.118 129.01 28.804 128.816 28.592C128.716 28.4842 128.593 28.3997 128.456 28.3444C128.32 28.2891 128.173 28.2644 128.026 28.272V28.274ZM128.218 32.65C127.448 32.65 126.844 32.424 126.406 31.97C125.972 31.516 125.754 30.89 125.754 30.096C125.754 29.278 125.954 28.636 126.362 28.168C126.764 27.702 127.322 27.468 128.026 27.468C128.682 27.468 129.2 27.668 129.58 28.07C129.96 28.47 130.152 29.022 130.152 29.726V30.3H126.84C126.854 30.784 126.984 31.16 127.23 31.418C127.476 31.678 127.822 31.81 128.268 31.81C128.56 31.81 128.834 31.782 129.088 31.726C129.368 31.66 129.64 31.5669 129.902 31.448V32.312C129.654 32.4311 129.392 32.5184 129.122 32.572C128.823 32.627 128.522 32.6531 128.218 32.65ZM136.232 28.364H135.02V32.558H133.96V28.362H133.142V27.864L133.96 27.538V27.214C133.96 26.624 134.096 26.184 134.374 25.9C134.648 25.616 135.068 25.472 135.634 25.472C136.006 25.472 136.372 25.534 136.732 25.658L136.452 26.464C136.212 26.3826 135.96 26.3394 135.706 26.336C135.466 26.336 135.292 26.412 135.182 26.562C135.074 26.71 135.02 26.934 135.02 27.232V27.558H136.232V28.364ZM139.578 26.234C139.578 26.046 139.628 25.912 139.728 25.828C139.831 25.7439 139.961 25.6999 140.094 25.704C140.254 25.704 140.38 25.752 140.474 25.844C140.524 25.8952 140.562 25.9561 140.587 26.0228C140.612 26.0896 140.624 26.1608 140.62 26.232C140.624 26.3036 140.613 26.3753 140.587 26.4423C140.561 26.5092 140.521 26.5698 140.47 26.62C140.42 26.6674 140.361 26.7044 140.296 26.7288C140.232 26.7532 140.163 26.7645 140.094 26.762C139.96 26.7658 139.83 26.7194 139.728 26.632C139.628 26.544 139.578 26.414 139.578 26.234ZM137.812 26.234C137.812 26.046 137.862 25.912 137.962 25.828C138.065 25.7442 138.195 25.7002 138.328 25.704C138.397 25.7006 138.467 25.7113 138.532 25.7353C138.598 25.7594 138.657 25.7963 138.708 25.844C138.802 25.938 138.848 26.068 138.848 26.232C138.852 26.3026 138.842 26.3733 138.818 26.44C138.793 26.5062 138.755 26.5667 138.706 26.618C138.656 26.6667 138.597 26.7046 138.532 26.7294C138.467 26.7542 138.398 26.7653 138.328 26.762C138.194 26.7656 138.064 26.7192 137.962 26.632C137.862 26.544 137.812 26.414 137.812 26.234ZM140.578 32.56L140.43 31.902H140.376C140.224 32.1408 140.007 32.3309 139.75 32.45C139.461 32.5871 139.144 32.6556 138.824 32.65C138.22 32.65 137.772 32.5 137.476 32.198C137.178 31.898 137.03 31.438 137.03 30.826V27.56H138.096V30.644C138.096 31.026 138.174 31.314 138.328 31.504C138.484 31.696 138.728 31.794 139.06 31.794C139.504 31.794 139.83 31.66 140.038 31.394C140.246 31.126 140.35 30.68 140.35 30.052V27.56H141.41V32.56H140.578ZM145.434 27.468C145.646 27.468 145.822 27.484 145.96 27.514L145.856 28.504C145.703 28.4678 145.546 28.4497 145.388 28.45C145.198 28.4432 145.008 28.4767 144.831 28.5484C144.655 28.6201 144.496 28.7283 144.364 28.866C144.095 29.16 143.954 29.5481 143.97 29.946V32.56H142.914V27.56H143.74L143.88 28.44H143.934C144.088 28.1553 144.309 27.9123 144.578 27.732C144.83 27.56 145.129 27.468 145.434 27.468ZM153.64 32.56H152.58V29.486C152.58 29.1 152.504 28.812 152.348 28.622C152.194 28.432 151.95 28.338 151.616 28.338C151.168 28.338 150.842 28.47 150.636 28.736C150.43 29 150.324 29.444 150.324 30.068V32.56H149.27V27.56H150.096L150.244 28.214H150.298C150.453 27.9724 150.676 27.7813 150.938 27.664C151.212 27.534 151.518 27.468 151.852 27.468C153.044 27.468 153.64 28.08 153.64 29.3V32.56ZM156.644 31.838C156.982 31.854 157.312 31.7378 157.566 31.514C157.798 31.296 157.916 30.994 157.916 30.606V30.172L157.276 30.2C156.78 30.218 156.418 30.3 156.192 30.45C155.966 30.6 155.852 30.828 155.852 31.134C155.852 31.36 155.92 31.534 156.052 31.654C156.182 31.776 156.382 31.838 156.644 31.838ZM158.216 32.56L158.006 31.864H157.97C157.73 32.168 157.49 32.376 157.246 32.484C156.95 32.6047 156.632 32.6619 156.312 32.652C155.824 32.652 155.442 32.518 155.168 32.252C154.896 31.988 154.758 31.612 154.758 31.126C154.758 30.61 154.948 30.222 155.33 29.96C155.708 29.698 156.29 29.554 157.068 29.53L157.924 29.504V29.236C157.924 28.916 157.85 28.678 157.702 28.52C157.556 28.36 157.322 28.282 157.012 28.282C156.758 28.282 156.514 28.322 156.28 28.394C156.05 28.4686 155.825 28.5581 155.606 28.662L155.266 27.902C155.822 27.6208 156.435 27.4722 157.058 27.468C157.69 27.468 158.166 27.608 158.488 27.884C158.81 28.162 158.97 28.598 158.97 29.19V32.56H158.216ZM162.448 32.65C161.696 32.65 161.124 32.43 160.734 31.99C160.344 31.546 160.148 30.914 160.148 30.086C160.148 29.246 160.352 28.6 160.76 28.146C161.17 27.694 161.76 27.468 162.534 27.468C163.056 27.468 163.53 27.568 163.946 27.762L163.628 28.618C163.182 28.442 162.814 28.354 162.524 28.354C161.664 28.354 161.234 28.928 161.234 30.076C161.234 30.636 161.342 31.06 161.554 31.342C161.77 31.622 162.082 31.762 162.496 31.762C162.966 31.762 163.412 31.646 163.83 31.412V32.338C163.643 32.4492 163.439 32.5302 163.226 32.578C162.969 32.6306 162.71 32.6548 162.448 32.65ZM169.368 32.56H168.308V29.486C168.308 29.098 168.232 28.812 168.076 28.622C167.924 28.432 167.68 28.338 167.344 28.338C166.9 28.338 166.574 28.47 166.368 28.738C166.158 29.004 166.054 29.452 166.054 30.078V32.558H165V25.524H166.054V27.31C166.054 27.596 166.036 27.904 166 28.23H166.068C166.21 27.9886 166.418 27.7929 166.668 27.666C166.946 27.5289 167.252 27.4609 167.562 27.468C168.766 27.468 169.37 28.08 169.37 29.3L169.368 32.56ZM175.208 32.56H174.148V29.486C174.148 29.098 174.068 28.812 173.914 28.622C173.76 28.432 173.516 28.338 173.182 28.338C172.738 28.338 172.412 28.47 172.204 28.738C171.996 29.004 171.892 29.452 171.892 30.078V32.558H170.838V25.524H171.892V27.31C171.892 27.596 171.872 27.904 171.838 28.23H171.906C172.048 27.9886 172.256 27.7929 172.506 27.666C172.784 27.5289 173.09 27.4609 173.4 27.468C174.604 27.468 175.208 28.08 175.208 29.3V32.56ZM178.21 31.836C178.548 31.8534 178.879 31.7387 179.134 31.516C179.366 31.296 179.482 30.996 179.482 30.606V30.172L178.842 30.2C178.348 30.218 177.984 30.3 177.76 30.45C177.532 30.6 177.42 30.828 177.42 31.134C177.42 31.36 177.486 31.534 177.62 31.654C177.75 31.776 177.948 31.836 178.21 31.836ZM179.784 32.56L179.572 31.864H179.536C179.296 32.168 179.056 32.376 178.814 32.484C178.518 32.6048 178.2 32.662 177.88 32.652C177.39 32.652 177.01 32.518 176.736 32.252C176.462 31.988 176.324 31.612 176.324 31.126C176.324 30.61 176.514 30.222 176.896 29.96C177.276 29.698 177.856 29.554 178.636 29.53L179.49 29.504V29.236C179.49 28.916 179.416 28.678 179.27 28.52C179.122 28.36 178.89 28.282 178.578 28.282C178.324 28.282 178.082 28.322 177.846 28.394C177.616 28.4686 177.391 28.5581 177.172 28.662L176.832 27.902C177.1 27.762 177.396 27.652 177.718 27.58C178.014 27.508 178.318 27.472 178.624 27.468C179.256 27.468 179.732 27.608 180.054 27.884C180.376 28.162 180.538 28.598 180.538 29.19V32.56H179.784ZM182.01 32.56H183.066V25.524H182.01V32.56ZM186.426 31.79C186.682 31.79 186.94 31.752 187.198 31.668V32.468C187.053 32.5277 186.901 32.5713 186.746 32.598C186.556 32.634 186.366 32.652 186.172 32.65C185.172 32.65 184.672 32.12 184.672 31.058V28.364H183.994V27.894L184.722 27.504L185.082 26.444H185.732V27.56H187.148V28.364H185.732V31.04C185.732 31.296 185.796 31.486 185.924 31.608C186.06 31.7323 186.242 31.7977 186.426 31.79ZM188.19 32.56H189.244V27.56H188.19V32.56ZM188.128 26.232C188.128 26.042 188.178 25.896 188.284 25.796C188.384 25.692 188.532 25.64 188.724 25.64C188.91 25.64 189.054 25.692 189.158 25.796C189.262 25.896 189.314 26.042 189.314 26.232C189.318 26.3102 189.307 26.3884 189.28 26.462C189.253 26.5355 189.212 26.6029 189.158 26.66C189.1 26.7143 189.032 26.7562 188.957 26.783C188.883 26.8098 188.803 26.8211 188.724 26.816C188.532 26.816 188.384 26.766 188.284 26.66C188.23 26.6029 188.189 26.5355 188.162 26.462C188.135 26.3884 188.124 26.3102 188.128 26.232ZM191.5 29.176C191.5 29.492 191.58 29.732 191.74 29.9C191.9 30.07 192.13 30.154 192.43 30.154C193.04 30.154 193.346 29.826 193.346 29.168C193.346 28.844 193.27 28.592 193.12 28.416C192.968 28.24 192.74 28.152 192.43 28.152C192.124 28.152 191.892 28.24 191.736 28.412C191.578 28.588 191.5 28.842 191.5 29.176ZM191.046 33.338C191.046 33.566 191.148 33.744 191.354 33.866C191.558 33.99 191.846 34.052 192.218 34.052C192.794 34.052 193.222 33.97 193.504 33.804C193.784 33.638 193.924 33.418 193.924 33.144C193.924 32.928 193.848 32.772 193.694 32.68C193.538 32.588 193.254 32.544 192.834 32.544H192.034C191.776 32.5297 191.522 32.6053 191.314 32.758C191.227 32.8271 191.158 32.9156 191.111 33.0163C191.065 33.117 191.042 33.2271 191.046 33.338ZM194.95 27.558V28.142L194.1 28.302C194.18 28.406 194.242 28.536 194.294 28.69C194.345 28.8477 194.37 29.0124 194.37 29.178C194.37 29.692 194.194 30.098 193.84 30.394C193.486 30.69 193 30.838 192.38 30.838C192.22 30.838 192.078 30.826 191.948 30.8C191.72 30.944 191.608 31.108 191.608 31.3C191.608 31.412 191.66 31.5 191.768 31.556C191.872 31.614 192.068 31.642 192.354 31.642H193.22C193.768 31.642 194.184 31.76 194.468 31.994C194.752 32.23 194.896 32.568 194.896 33.014C194.905 33.274 194.846 33.5317 194.723 33.7614C194.601 33.991 194.421 34.1844 194.2 34.322C193.736 34.632 193.064 34.784 192.186 34.784C191.51 34.784 190.996 34.664 190.638 34.424C190.467 34.3135 190.327 34.1602 190.233 33.9792C190.139 33.7982 190.094 33.5958 190.102 33.392C190.102 33.086 190.2 32.826 190.392 32.616C190.613 32.3922 190.896 32.2402 191.204 32.18C191.062 32.1183 190.941 32.0169 190.856 31.888C190.767 31.765 190.719 31.6176 190.718 31.466C190.718 31.278 190.77 31.12 190.874 30.99C191.009 30.8371 191.167 30.7073 191.344 30.606C191.084 30.4935 190.864 30.3035 190.716 30.062C190.552 29.7969 190.468 29.4897 190.476 29.178C190.476 28.634 190.646 28.214 190.986 27.916C191.326 27.616 191.808 27.468 192.438 27.468C192.705 27.4685 192.97 27.4994 193.23 27.56L194.95 27.558ZM197.846 28.274C197.697 28.2672 197.548 28.2923 197.409 28.3474C197.27 28.4026 197.144 28.4866 197.04 28.594C196.838 28.81 196.718 29.12 196.68 29.53H198.932C198.928 29.118 198.828 28.804 198.636 28.592C198.536 28.4841 198.413 28.3995 198.277 28.3442C198.14 28.2889 197.993 28.2643 197.846 28.272V28.274ZM198.038 32.65C197.266 32.65 196.662 32.424 196.226 31.97C195.792 31.516 195.574 30.89 195.574 30.096C195.574 29.278 195.774 28.636 196.18 28.168C196.584 27.702 197.14 27.468 197.846 27.468C198.502 27.468 199.018 27.668 199.4 28.07C199.78 28.47 199.972 29.022 199.972 29.726V30.3H196.66C196.676 30.784 196.808 31.16 197.052 31.418C197.296 31.678 197.642 31.81 198.088 31.81C198.382 31.81 198.656 31.782 198.908 31.726C199.188 31.6601 199.462 31.567 199.724 31.448V32.312C199.476 32.4317 199.214 32.5191 198.944 32.572C198.645 32.627 198.342 32.6531 198.038 32.65ZM95.47 40.736L94.856 38.936C94.7882 38.7486 94.7262 38.5592 94.67 38.368C94.6101 38.1793 94.5548 37.9893 94.504 37.798C94.424 38.168 94.304 38.574 94.15 39.012L93.558 40.736H95.47ZM96.41 43.504L95.754 41.666H93.244L92.598 43.504H91.468L93.926 36.864H95.092L97.55 43.504H96.41ZM99.05 40.122C99.05 40.434 99.13 40.676 99.29 40.844C99.45 41.014 99.68 41.098 99.978 41.098C100.59 41.098 100.896 40.77 100.896 40.112C100.896 39.788 100.818 39.536 100.668 39.36C100.518 39.184 100.288 39.096 99.978 39.096C99.674 39.096 99.442 39.184 99.286 39.356C99.128 39.532 99.048 39.786 99.048 40.122H99.05ZM98.596 44.282C98.596 44.51 98.698 44.688 98.904 44.81C99.108 44.934 99.396 44.996 99.768 44.996C100.344 44.996 100.772 44.912 101.052 44.746C101.332 44.582 101.474 44.36 101.474 44.086C101.474 43.87 101.398 43.716 101.244 43.624C101.088 43.532 100.804 43.486 100.384 43.486H99.584C99.3262 43.4724 99.0717 43.5488 98.864 43.702C98.7765 43.7705 98.7066 43.8588 98.66 43.9596C98.6134 44.0605 98.5914 44.171 98.596 44.282ZM102.498 38.502V39.086L101.65 39.246C101.728 39.35 101.792 39.478 101.844 39.632C101.895 39.7904 101.92 39.9557 101.92 40.122C101.92 40.638 101.742 41.042 101.39 41.338C101.038 41.634 100.55 41.782 99.93 41.782C99.77 41.782 99.628 41.77 99.498 41.744C99.272 41.886 99.158 42.052 99.158 42.244C99.158 42.356 99.21 42.444 99.318 42.5C99.424 42.556 99.618 42.586 99.902 42.586H100.77C101.318 42.586 101.734 42.704 102.018 42.938C102.302 43.174 102.444 43.512 102.444 43.958C102.453 44.218 102.394 44.4757 102.271 44.7054C102.149 44.935 101.969 45.1284 101.748 45.266C101.284 45.576 100.614 45.728 99.736 45.728C99.06 45.728 98.544 45.608 98.188 45.368C98.0167 45.2573 97.8772 45.104 97.7832 44.923C97.6893 44.7421 97.644 44.5398 97.652 44.336C97.652 44.028 97.748 43.768 97.942 43.56C98.1617 43.3362 98.4441 43.1841 98.752 43.124C98.6108 43.0623 98.4905 42.9608 98.406 42.832C98.3184 42.7093 98.2703 42.5628 98.268 42.412C98.268 42.222 98.322 42.064 98.426 41.932C98.5599 41.7805 98.7172 41.6515 98.892 41.55C98.6328 41.4367 98.4144 41.2469 98.266 41.006C98.1022 40.7407 98.0188 40.4337 98.026 40.122C98.026 39.578 98.196 39.158 98.534 38.86C98.874 38.56 99.36 38.412 99.988 38.412C100.254 38.4121 100.519 38.4423 100.778 38.502H102.498ZM105.94 38.412C106.152 38.412 106.328 38.428 106.464 38.458L106.362 39.448C106.209 39.4118 106.052 39.3937 105.894 39.394C105.703 39.3865 105.513 39.4195 105.337 39.4909C105.16 39.5623 105 39.6703 104.868 39.808C104.599 40.1028 104.458 40.4916 104.474 40.89V43.504H103.42V38.504H104.246L104.386 39.384H104.438C104.592 39.0982 104.814 38.8544 105.084 38.674C105.337 38.504 105.635 38.4134 105.94 38.414V38.412ZM108.92 42.78C109.258 42.7965 109.589 42.681 109.844 42.458C110.076 42.24 110.194 41.94 110.194 41.55V41.116L109.554 41.144C109.058 41.16 108.696 41.244 108.47 41.394C108.244 41.544 108.13 41.772 108.13 42.078C108.13 42.302 108.198 42.476 108.33 42.596C108.46 42.72 108.658 42.782 108.922 42.782L108.92 42.78ZM110.494 43.504L110.282 42.806H110.248C110.008 43.112 109.766 43.318 109.524 43.428C109.228 43.5487 108.91 43.6059 108.59 43.596C108.102 43.596 107.72 43.462 107.446 43.196C107.174 42.932 107.036 42.556 107.036 42.07C107.036 41.554 107.226 41.166 107.606 40.904C107.986 40.64 108.566 40.498 109.346 40.474L110.2 40.448V40.18C110.2 39.86 110.128 39.622 109.98 39.464C109.832 39.304 109.6 39.224 109.288 39.224C109.034 39.224 108.792 39.264 108.558 39.338C108.328 39.4125 108.103 39.502 107.884 39.606L107.544 38.846C107.812 38.704 108.106 38.596 108.428 38.524C108.748 38.45 109.05 38.412 109.336 38.412C109.966 38.412 110.444 38.552 110.764 38.828C111.088 39.106 111.248 39.542 111.248 40.134V43.504H110.494ZM115.242 38.414C115.452 38.414 115.628 38.428 115.766 38.458L115.662 39.448C115.509 39.4118 115.352 39.3937 115.194 39.394C115.004 39.3868 114.814 39.4199 114.638 39.4913C114.461 39.5627 114.302 39.6706 114.17 39.808C113.901 40.1028 113.76 40.4916 113.776 40.89V43.504H112.72V38.504H113.548L113.688 39.384H113.74C113.894 39.0983 114.116 38.8546 114.386 38.674C114.638 38.5044 114.938 38.4138 115.242 38.414ZM116.686 43.504H117.74V36.468H116.686V43.504ZM119.25 43.504H120.306V38.504H119.252L119.25 43.504ZM119.19 37.178C119.19 36.988 119.238 36.842 119.342 36.74C119.446 36.638 119.594 36.586 119.786 36.586C119.97 36.586 120.116 36.638 120.218 36.74C120.322 36.842 120.376 36.988 120.376 37.18C120.38 37.258 120.368 37.3359 120.34 37.4091C120.313 37.4823 120.272 37.5493 120.218 37.606C120.16 37.6599 120.092 37.7016 120.018 37.7284C119.944 37.7552 119.865 37.7667 119.786 37.762C119.594 37.762 119.446 37.71 119.342 37.606C119.289 37.5487 119.248 37.4813 119.221 37.4077C119.195 37.3342 119.186 37.256 119.19 37.178ZM123.792 39.218C123.643 39.211 123.493 39.2359 123.354 39.2911C123.216 39.3463 123.09 39.4304 122.986 39.538C122.784 39.754 122.664 40.064 122.626 40.474H124.88C124.874 40.06 124.774 39.748 124.582 39.536C124.482 39.4283 124.359 39.3439 124.222 39.2886C124.086 39.2333 123.939 39.2105 123.792 39.218ZM123.984 43.594C123.212 43.594 122.61 43.368 122.172 42.914C121.738 42.46 121.518 41.834 121.518 41.038C121.518 40.224 121.722 39.582 122.126 39.114C122.528 38.646 123.086 38.412 123.792 38.412C124.448 38.412 124.966 38.612 125.346 39.012C125.726 39.414 125.916 39.968 125.916 40.668V41.242H122.606C122.622 41.728 122.752 42.102 122.996 42.362C123.242 42.622 123.588 42.754 124.036 42.754C124.328 42.754 124.602 42.726 124.856 42.67C125.106 42.614 125.378 42.52 125.67 42.39V43.256C125.422 43.3757 125.159 43.4631 124.888 43.516C124.59 43.5718 124.287 43.5966 123.984 43.594ZM129.608 39.308H128.396V43.506H127.336V39.308H126.516V38.81L127.336 38.486V38.16C127.336 37.57 127.472 37.132 127.75 36.846C128.024 36.562 128.444 36.418 129.01 36.418C129.382 36.418 129.746 36.48 130.106 36.604L129.826 37.41C129.586 37.3287 129.335 37.2855 129.082 37.282C128.842 37.282 128.668 37.358 128.558 37.508C128.45 37.656 128.396 37.88 128.396 38.178V38.504H129.608V39.308ZM132.428 39.216C132.278 39.2095 132.129 39.235 131.99 39.2909C131.851 39.3468 131.726 39.4317 131.622 39.54C131.42 39.754 131.3 40.064 131.262 40.474H133.516C133.51 40.06 133.41 39.748 133.218 39.536C133.118 39.4283 132.995 39.3439 132.858 39.2886C132.722 39.2333 132.575 39.2085 132.428 39.216ZM132.62 43.594C131.848 43.594 131.244 43.368 130.808 42.914C130.374 42.46 130.156 41.834 130.156 41.038C130.156 40.224 130.356 39.582 130.762 39.114C131.166 38.646 131.722 38.412 132.428 38.412C133.084 38.412 133.602 38.612 133.982 39.012C134.362 39.414 134.552 39.968 134.552 40.668V41.242H131.242C131.256 41.728 131.388 42.102 131.634 42.362C131.878 42.622 132.224 42.754 132.67 42.754C132.964 42.754 133.236 42.726 133.49 42.67C133.77 42.6034 134.042 42.5096 134.304 42.39V43.256C134.056 43.3761 133.794 43.4635 133.524 43.516C133.226 43.5716 132.923 43.5964 132.62 43.594ZM138.272 38.414C138.484 38.414 138.658 38.428 138.796 38.458L138.692 39.448C138.539 39.4119 138.383 39.3938 138.226 39.394C138.035 39.3865 137.845 39.4195 137.669 39.4909C137.492 39.5623 137.332 39.6703 137.2 39.808C136.931 40.1026 136.789 40.4915 136.806 40.89V43.504H135.752V38.504H136.578L136.718 39.384H136.77C136.924 39.0983 137.146 38.8546 137.416 38.674C137.669 38.5034 137.967 38.4128 138.272 38.414ZM140.736 40.864L141.334 40.112L142.834 38.502H144.052L142.052 40.652L144.176 43.504H142.936L141.342 41.312L140.762 41.79V43.504H139.716V36.468H140.764V39.898L140.71 40.862L140.736 40.864ZM146.952 39.216C146.802 39.2095 146.653 39.235 146.514 39.2909C146.375 39.3468 146.25 39.4317 146.146 39.54C145.946 39.754 145.826 40.064 145.786 40.474H148.04C148.034 40.06 147.936 39.748 147.742 39.536C147.642 39.4283 147.519 39.3439 147.382 39.2886C147.246 39.2333 147.099 39.2085 146.952 39.216ZM147.146 43.594C146.374 43.594 145.77 43.368 145.334 42.914C144.898 42.46 144.68 41.834 144.68 41.038C144.68 40.224 144.88 39.582 145.288 39.114C145.688 38.646 146.248 38.412 146.952 38.412C147.608 38.412 148.126 38.612 148.506 39.012C148.886 39.414 149.078 39.968 149.078 40.668V41.242H145.766C145.782 41.728 145.914 42.102 146.158 42.362C146.402 42.622 146.75 42.754 147.194 42.754C147.488 42.754 147.762 42.726 148.014 42.67C148.268 42.614 148.54 42.52 148.83 42.39V43.256C148.582 43.3756 148.32 43.4629 148.05 43.516C147.752 43.5718 147.449 43.5966 147.146 43.594ZM152.126 42.734C152.384 42.734 152.64 42.694 152.898 42.612V43.412C152.753 43.4713 152.602 43.5149 152.448 43.542C152.258 43.578 152.068 43.596 151.874 43.594C150.874 43.594 150.374 43.064 150.374 42.002V39.308H149.696V38.836L150.424 38.448L150.784 37.39H151.434V38.504H152.85V39.308H151.434V41.984C151.434 42.24 151.498 42.43 151.624 42.55C151.76 42.6761 151.941 42.741 152.126 42.734ZM155.742 42.734C156.004 42.734 156.262 42.694 156.514 42.612V43.412C156.368 43.4713 156.217 43.5149 156.062 43.542C155.873 43.577 155.682 43.5944 155.49 43.594C154.49 43.594 153.99 43.064 153.99 42.002V39.308H153.31V38.836L154.04 38.448L154.4 37.39H155.05V38.504H156.464V39.308H155.05V41.984C155.05 42.24 155.114 42.43 155.24 42.55C155.375 42.6758 155.555 42.7426 155.74 42.736L155.742 42.734ZM159.482 39.216C159.332 39.2095 159.183 39.235 159.044 39.2909C158.905 39.3468 158.78 39.4317 158.676 39.54C158.476 39.754 158.356 40.064 158.316 40.474H160.57C160.564 40.06 160.466 39.748 160.272 39.536C160.172 39.4283 160.049 39.3439 159.912 39.2886C159.776 39.2333 159.629 39.2085 159.482 39.216ZM159.674 43.594C158.904 43.594 158.3 43.368 157.862 42.914C157.428 42.46 157.21 41.834 157.21 41.038C157.21 40.224 157.41 39.582 157.818 39.114C158.218 38.646 158.778 38.412 159.482 38.412C160.138 38.412 160.656 38.612 161.036 39.012C161.416 39.414 161.608 39.968 161.608 40.668V41.242H158.296C158.312 41.728 158.444 42.102 158.688 42.362C158.934 42.622 159.28 42.754 159.724 42.754C160.018 42.754 160.292 42.726 160.544 42.67C160.798 42.614 161.068 42.52 161.36 42.39V43.256C161.112 43.3756 160.85 43.4629 160.58 43.516C160.281 43.572 159.978 43.5968 159.674 43.594ZM167.178 43.504H166.118V40.43C166.118 40.044 166.038 39.756 165.884 39.564C165.73 39.376 165.486 39.282 165.15 39.282C164.704 39.282 164.378 39.414 164.17 39.678C163.964 39.944 163.86 40.388 163.86 41.012V43.504H162.806V38.504H163.634L163.78 39.158H163.836C163.99 38.9166 164.211 38.7254 164.472 38.608C164.759 38.4752 165.072 38.4082 165.388 38.412C166.58 38.412 167.176 39.022 167.176 40.244L167.178 43.504ZM0 45.808H4.392V2.14L2.3 0L0 2.14V45.808ZM14.932 2.954L14.946 45.812H19.34L19.326 10.592L14.932 2.954ZM41.892 0L39.592 2.086L38.946 35.262L43.338 42.902L43.982 2.086L41.892 0ZM68.192 2.15L51.552 45.998L47.434 43.85L64.076 0L68.192 2.15Z" fill="#9DA042"/>
</svg>
