<?xml version="1.0" standalone="no"?>
<!DOCTYPE svg PUBLIC "-//W3C//DTD SVG 20010904//EN"
 "http://www.w3.org/TR/2001/REC-SVG-20010904/DTD/svg10.dtd">
<svg version="1.0" xmlns="http://www.w3.org/2000/svg"
 width="700.000000pt" height="700.000000pt" viewBox="0 0 700.000000 700.000000"
 preserveAspectRatio="xMidYMid meet">
<metadata>
Created by potrace 1.14, written by Peter Selinger 2001-2017
</metadata>
<g transform="translate(0.000000,700.000000) scale(0.100000,-0.100000)"
fill="#000000" stroke="none">
<path d="M1342 6113 c-162 -30 -331 -161 -406 -313 -36 -74 -41 -89 -55 -180
-9 -60 -6 -4213 3 -4269 37 -222 242 -427 465 -465 56 -9 560 -11 2179 -10
1943 1 2112 3 2167 18 208 59 387 252 421 457 4 24 8 986 8 2138 1 1573 -2
2111 -11 2164 -27 164 -157 334 -313 411 -41 20 -86 38 -100 41 -14 3 -38 8
-55 12 -16 4 -976 7 -2133 7 -1624 1 -2118 -2 -2170 -11z m4195 -576 c5 -6 5
-4068 0 -4074 -6 -5 -4069 -5 -4074 1 -4 3 -6 3827 -3 4048 0 22 5 27 28 30
43 5 4043 0 4049 -5z"/>
<path d="M3964 5100 c-82 -83 -148 -155 -147 -160 2 -5 91 -98 199 -205 176
-175 195 -197 183 -213 -12 -14 -108 -114 -274 -286 -17 -17 -50 -52 -74 -78
l-43 -48 151 -151 c84 -83 154 -150 156 -148 2 2 94 94 205 204 l200 199 205
-204 205 -205 150 150 c82 82 150 153 150 157 0 4 -56 65 -124 135 -68 70
-158 163 -200 207 -56 58 -74 82 -66 91 6 7 97 99 203 205 l194 193 -154 154
-154 154 -204 -205 -203 -204 -205 204 -204 204 -149 -150z"/>
<path d="M1826 4740 c-2 -8 -4 -106 -4 -217 0 -144 4 -203 12 -204 6 -1 334
-2 728 -3 l718 -1 1 28 c0 35 0 257 0 345 l-1 67 -725 0 c-636 0 -726 -2 -729
-15z"/>
<path d="M2336 3340 c-3 -8 -4 -130 -4 -270 0 -140 -1 -265 -1 -277 l-1 -23
-290 0 -290 0 0 -219 0 -218 275 1 c152 1 283 -2 292 -5 15 -5 16 -36 16 -292
l0 -287 219 0 218 0 0 290 0 290 23 1 c12 0 141 1 287 1 146 1 267 5 270 9 3
4 5 101 4 216 l0 208 -292 3 -292 2 0 290 c0 225 -3 290 -12 291 -7 1 -104 2
-216 3 -172 1 -203 -1 -206 -14z"/>
<path d="M3794 3131 c-2 -2 -4 -100 -4 -218 l0 -213 28 -1 c33 -1 1390 0 1415
0 16 1 17 18 17 219 l0 217 -726 0 c-399 0 -728 -2 -730 -4z"/>
<path d="M3790 2188 l0 -218 730 0 730 0 0 218 0 218 -730 0 -730 1 0 -219z"/>
</g>
</svg>
