<svg xmlns="http://www.w3.org/2000/svg" viewBox="0 0 24 24">
    <path d="M12 2c-1.3833 0-2.6837.2621-3.9004.7871S5.8258 4.0258 4.9258 4.9258c-.9.9-1.6137 1.9571-2.1387 3.1738C2.2621 9.3163 2 10.6166 2 12c0 1.3833.2621 2.6837.7871 3.9004s1.2387 2.2738 2.1387 3.1738c.9.9 1.9571 1.6137 3.1738 2.1387C9.3163 21.7379 10.6166 22 12 22c1.3833 0 2.6837-.2621 3.9004-.7871s2.2738-1.2387 3.1738-2.1387c.9-.9 1.6137-1.9571 2.1387-3.1738C21.7379 14.6837 22 13.3834 22 12c0-1.3833-.2621-2.6837-.7871-3.9004s-1.2387-2.2738-2.1387-3.1738c-.9-.9-1.9571-1.6137-3.1738-2.1387C14.6837 2.2621 13.3834 2 12 2Zm.0996 4c.9333 0 1.7425.25 2.4258.75.6833.5 1.0254 1.217 1.0254 2.1504 0 .55-.125 1.0204-.375 1.4121-.25.3917-.592.805-1.0254 1.2383-.5833.55-.9375.9821-1.0625 1.2988s-.1875.7508-.1875 1.3008h-1.8496c0-.8833.0833-1.4928.25-1.8262.1666-.3333.6163-.8246 1.3496-1.4746.3-.25.55-.5208.75-.8125.2-.2917.2988-.6042.2988-.9375 0-.35-.1318-.6712-.3984-.9629-.2667-.2917-.6679-.4375-1.2012-.4375-.6 0-1.0462.1754-1.3379.5254-.2916.35-.4791.6746-.5625.9746l-1.6484-.6484c.2333-.7.6446-1.3008 1.2363-1.8008S11.1496 6 12.0996 6Zm-.1504 9.5c.35 0 .647.1216.8887.3633.2417.2417.3613.5367.3613.8867 0 .35-.1196.645-.3613.8867-.2417.2417-.5387.3633-.8887.3633-.35 0-.645-.1216-.8867-.3633-.2417-.2417-.3633-.5367-.3633-.8867 0-.35.1216-.645.3633-.8867.2417-.2417.5367-.3633.8867-.3633Z"/>
</svg>
