<svg xmlns="http://www.w3.org/2000/svg" viewBox="0 0 24 24">
    <path d="M12 22q-2.05 0-3.875-.7875-1.825-.7875-3.1875-2.15Q3.575 17.7 2.7875 15.875 2 14.05 2 12q0-2.075.7875-3.8875t2.15-3.175Q6.3 3.575 8.125 2.7875 9.95 2 12 2q2.075 0 3.8875.7875t3.175 2.15q1.3625 1.3625 2.15 3.175Q22 9.925 22 12q0 2.05-.7875 3.875-.7875 1.825-2.15 3.1875-1.3625 1.3625-3.175 2.15Q14.075 22 12 22Zm0-2.05q.65-.9 1.125-1.875T13.9 16h-3.8q.3 1.1.775 2.075.475.975 1.125 1.875Zm-2.6-.4q-.45-.825-.7875-1.7125Q8.275 16.95 8.05 16H5.1q.725 1.25 1.8125 2.175Q8 19.1 9.4 19.55Zm5.2 0q1.4-.45 2.4875-1.375T18.9 16h-2.95q-.225.95-.5625 1.8375T14.6 19.55ZM4.25 14h3.4q-.075-.5-.1125-.9875Q7.5 12.525 7.5 12q0-.525.0375-1.0125Q7.575 10.5 7.65 10h-3.4q-.125.5-.1875.9875Q4 11.475 4 12q0 .525.0625 1.0125Q4.125 13.5 4.25 14Zm5.4 0h4.7q.075-.5.1125-.9875Q14.5 12.525 14.5 12q0-.525-.0375-1.0125Q14.425 10.5 14.35 10h-4.7q-.075.5-.1125.9875Q9.5 11.475 9.5 12q0 .525.0375 1.0125Q9.575 13.5 9.65 14Zm6.7 0h3.4q.125-.5.1875-.9875Q20 12.525 20 12q0-.525-.0625-1.0125Q19.875 10.5 19.75 10h-3.4q.075.5.1125.9875Q16.5 11.475 16.5 12q0 .525-.0375 1.0125Q16.425 13.5 16.35 14Zm-.4-6h2.95q-.725-1.25-1.8125-2.175Q16 4.9 14.6 4.45q.45.825.7875 1.7125Q15.725 7.05 15.95 8ZM10.1 8h3.8q-.3-1.1-.775-2.075Q12.65 4.95 12 4.05q-.65.9-1.125 1.875T10.1 8Zm-5 0h2.95q.225-.95.5625-1.8375T9.4 4.45Q8 4.9 6.9125 5.825T5.1 8Z"/>
</svg>
