<svg xmlns="http://www.w3.org/2000/svg" viewBox="0 0 24 24">
    <path d="M7 9V7h14v2zm0 4v-2h14v2zm0 4v-2h14v2zM4 9q-.425 0-.7125-.2875Q3 8.425 3 8q0-.425.2875-.7125Q3.575 7 4 7q.425 0 .7125.2875Q5 7.575 5 8q0 .425-.2875.7125Q4.425 9 4 9Zm0 4q-.425 0-.7125-.2875Q3 12.425 3 12q0-.425.2875-.7125Q3.575 11 4 11q.425 0 .7125.2875Q5 11.575 5 12q0 .425-.2875.7125Q4.425 13 4 13Zm0 4q-.425 0-.7125-.2875Q3 16.425 3 16q0-.425.2875-.7125Q3.575 15 4 15q.425 0 .7125.2875Q5 15.575 5 16q0 .425-.2875.7125Q4.425 17 4 17Z"/>
</svg>
