<svg xmlns="http://www.w3.org/2000/svg" viewBox="0 0 24 24">
    <path d="M12 20q-.825 0-1.4125-.5875Q10 18.825 10 18q0-.825.5875-1.4125Q11.175 16 12 16q.825 0 1.4125.5875Q14 17.175 14 18q0 .825-.5875 1.4125Q12.825 20 12 20Zm0-6q-.825 0-1.4125-.5875Q10 12.825 10 12q0-.825.5875-1.4125Q11.175 10 12 10q.825 0 1.4125.5875Q14 11.175 14 12q0 .825-.5875 1.4125Q12.825 14 12 14Zm0-6q-.825 0-1.4125-.5875Q10 6.825 10 6q0-.825.5875-1.4125Q11.175 4 12 4q.825 0 1.4125.5875Q14 5.175 14 6q0 .825-.5875 1.4125Q12.825 8 12 8Z"/>
</svg>
