<svg xmlns="http://www.w3.org/2000/svg" viewBox="0 0 24 24">
    <path d="M6 14q-.825 0-1.4125-.5875Q4 12.825 4 12q0-.825.5875-1.4125Q5.175 10 6 10q.825 0 1.4125.5875Q8 11.175 8 12q0 .825-.5875 1.4125Q6.825 14 6 14Zm6 0q-.825 0-1.4125-.5875Q10 12.825 10 12q0-.825.5875-1.4125Q11.175 10 12 10q.825 0 1.4125.5875Q14 11.175 14 12q0 .825-.5875 1.4125Q12.825 14 12 14Zm6 0q-.825 0-1.4125-.5875Q16 12.825 16 12q0-.825.5875-1.4125Q17.175 10 18 10q.825 0 1.4125.5875Q20 11.175 20 12q0 .825-.5875 1.4125Q18.825 14 18 14Z"/>
</svg>
