<svg xmlns="http://www.w3.org/2000/svg" viewBox="0 0 24 24">
    <path d="M12 22c-1.3833 0-2.6833-.2625-3.9-.7875-1.2167-.525-2.275-1.2375-3.175-2.1375-.9-.9-1.6125-1.9583-2.1375-3.175C2.2625 14.6833 2 13.3833 2 12c0-1.3833.2625-2.6833.7875-3.9.525-1.2167 1.2375-2.275 2.1375-3.175.9-.9 1.9583-1.6125 3.175-2.1375C9.3167 2.2625 10.6167 2 12 2c1.3833 0 2.6833.2625 3.9.7875 1.2167.525 2.275 1.2375 3.175 2.1375.9.9 1.6125 1.9583 2.1375 3.175.525 1.2167.7875 2.5167.7875 3.9 0 1.3833-.2625 2.6833-.7875 3.9-.525 1.2167-1.2375 2.275-2.1375 3.175-.9.9-1.9583 1.6125-3.175 2.1375-1.2167.525-2.5167.7875-3.9.7875Zm0-2c2.2333 0 4.125-.775 5.675-2.325C19.225 16.125 20 14.2333 20 12c0-1.0667-.2-2.0917-.6-3.075-.4-.9833-.975-1.85-1.725-2.6L12 12V4c-2.2333 0-4.125.775-5.675 2.325C4.775 7.875 4 9.7667 4 12s.775 4.125 2.325 5.675C7.875 19.225 9.7667 20 12 20Z"/>
</svg>
