<svg xmlns="http://www.w3.org/2000/svg" viewBox="0 0 24 24">
    <path d="M12 2c-1.3833 0-2.6837.2621-3.9004.7871S5.8258 4.0258 4.9258 4.9258c-.9.9-1.6137 1.9571-2.1387 3.1738C2.2621 9.3163 2 10.6166 2 12c0 1.3833.2621 2.6837.7871 3.9004s1.2387 2.2738 2.1387 3.1738c.9.9 1.9571 1.6137 3.1738 2.1387C9.3163 21.7379 10.6166 22 12 22c1.3833 0 2.6837-.2621 3.9004-.7871s2.2738-1.2387 3.1738-2.1387c.9-.9 1.6137-1.9571 2.1387-3.1738C21.7379 14.6837 22 13.3833 22 12c0-1.3833-.2621-2.6837-.7871-3.9004s-1.2387-2.2738-2.1387-3.1738c-.9-.9-1.9571-1.6137-3.1738-2.1387C14.6837 2.2621 13.3833 2 12 2zm4.9219 5.5313.9375.9375-8 8L6.1406 12.75l.9063-.9375 2.8125 2.8125 7.0625-7.0938z"/>
</svg>
